<svg width="62" height="118" viewBox="0 0 62 118" fill="none" xmlns="http://www.w3.org/2000/svg">
<path d="M56.676 60.35V75.5H58.776V60.35H56.676ZM50.376 74.175V74.875C50.376 78.125 46.826 80.55 42.801 81.225L43.601 82.85C48.176 82 52.151 79.15 52.151 74.875V74.175H50.376ZM50.751 74.175V74.875C50.751 79.125 54.676 82 59.201 82.85L60.026 81.225C56.001 80.525 52.526 78.075 52.526 74.875V74.175H50.751ZM46.651 61.825C43.226 61.825 40.751 64.025 40.751 67.2C40.751 70.375 43.226 72.575 46.651 72.575C50.051 72.575 52.526 70.375 52.526 67.2C52.526 64.025 50.051 61.825 46.651 61.825ZM46.651 63.6C48.901 63.6 50.526 65.05 50.526 67.2C50.526 69.325 48.901 70.8 46.651 70.8C44.401 70.8 42.776 69.325 42.776 67.2C42.776 65.05 44.401 63.6 46.651 63.6ZM55.526 91.325V113.975H57.626V91.325H55.526ZM57.126 100.25V102H61.326V100.25H57.126ZM41.201 106.6V108.35H42.976C47.226 108.35 50.201 108.225 53.676 107.575L53.451 105.825C50.076 106.45 47.151 106.6 42.976 106.6H41.201ZM41.201 93.525V107.375H43.251V95.225H51.701V93.525H41.201Z" fill="black"/>
<line x1="51" y1="7" x2="51" y2="48" stroke="black" stroke-width="2"/>
<path d="M7.57598 5.175C4.22598 5.175 1.75098 7.225 1.75098 10.2C1.75098 13.15 4.22598 15.2 7.57598 15.2C10.951 15.2 13.426 13.15 13.426 10.2C13.426 7.225 10.951 5.175 7.57598 5.175ZM7.57598 6.875C9.77598 6.875 11.401 8.25 11.401 10.2C11.401 12.15 9.77598 13.5 7.57598 13.5C5.40098 13.5 3.75098 12.15 3.75098 10.2C3.75098 8.25 5.40098 6.875 7.57598 6.875ZM17.676 4.35V15.925H19.776V4.35H17.676ZM5.15098 17.025V18.7H17.726V20.975H5.20098V25.925H7.22598V22.525H19.776V17.025H5.15098ZM5.20098 25V26.65H20.526V25H5.20098ZM17.701 35.35V57.95H19.776V35.35H17.701ZM11.076 37.775V38.125C11.076 44.125 8.05098 48.925 1.52598 52.075L2.62598 53.75C10.176 50.05 13.126 44.325 13.126 37.775H11.076ZM2.55098 37.775V39.475H11.976V37.775H2.55098ZM1.22598 76.85V78.425H21.726V76.85H1.22598ZM3.65098 80.25V81.725H17.126V83.65H3.72598V87.725H5.77598V85.075H19.151V80.25H3.65098ZM3.72598 87.175V88.675H19.876V87.175H3.72598ZM3.82598 67V68.475H17.051V70.3H3.87598V74.15H5.92598V71.7H19.076V67H3.82598ZM3.87598 73.65V75.15H19.501V73.65H3.87598Z" fill="black"/>
</svg>
